<svg xmlns="http://www.w3.org/2000/svg" xmlns:xlink="http://www.w3.org/1999/xlink" viewBox="0,0,256,256" width="80px" height="80px"><g fill="#ffffff" fill-rule="nonzero" stroke="none" stroke-width="1" stroke-linecap="butt" stroke-linejoin="miter" stroke-miterlimit="10" stroke-dasharray="" stroke-dashoffset="0" font-family="none" font-weight="none" font-size="none" text-anchor="none" style="mix-blend-mode: normal"><g transform="scale(3.2,3.2)"><path d="M40,7c-18.21484,0 -33,14.78516 -33,33c0,5.88281 1.57031,11.39453 4.26953,16.17578l-5.85156,18.66016l19.69141,-5.44531c4.48047,2.27344 9.52734,3.60938 14.89063,3.60938c18.21484,0 33,-14.78516 33,-33c0,-18.21484 -14.78516,-33 -33,-33zM40,9c17.13281,0 31,13.86719 31,31c0,17.13281 -13.86719,31 -31,31c-5.19922,0 -10.08984,-1.28516 -14.39062,-3.54297l-0.34766,-0.18359l-16.83594,4.65625l5.00391,-15.96094l-0.22266,-0.37891c-2.67187,-4.58203 -4.20703,-9.90234 -4.20703,-15.58984c0,-17.13281 13.86719,-31 31,-31zM40,12c-0.55078,0 -1,0.44922 -1,1c0,0.55078 0.44922,1 1,1c0.55078,0 1,-0.44922 1,-1c0,-0.55078 -0.44922,-1 -1,-1zM45.29297,12.51563c-0.48828,-0.01172 -0.91016,0.32813 -1.00781,0.80859c-0.10547,0.53906 0.24609,1.06641 0.78906,1.17578c0.53906,0.10547 1.06641,-0.24609 1.17578,-0.78516c0.10547,-0.54297 -0.24609,-1.07031 -0.78516,-1.17969c-0.05859,-0.00781 -0.11328,-0.01562 -0.17187,-0.01953zM34.73828,12.51953c-0.06641,0 -0.13281,0.00391 -0.19922,0.01563c-0.54297,0.10938 -0.89453,0.63672 -0.78516,1.17969c0.05078,0.25781 0.20313,0.48828 0.42578,0.63672c0.21875,0.14453 0.48828,0.19922 0.75,0.14844c0.54297,-0.10937 0.89453,-0.63281 0.78516,-1.17578c-0.09375,-0.46484 -0.5,-0.80078 -0.97656,-0.80469zM29.67578,14.05469c-0.13281,0 -0.26562,0.02344 -0.39062,0.07422c-0.51172,0.21484 -0.75391,0.79688 -0.53906,1.30859c0.21094,0.51172 0.79297,0.75391 1.30469,0.54297c0.51172,-0.21484 0.75391,-0.79687 0.54297,-1.30859c-0.15625,-0.37109 -0.51562,-0.61328 -0.91797,-0.61719zM50.35547,14.05469c-0.41406,-0.00781 -0.78906,0.23438 -0.94922,0.61719c-0.21094,0.51172 0.03125,1.09375 0.54297,1.30859c0.51172,0.21094 1.09375,-0.03125 1.30469,-0.54297c0.21484,-0.51172 -0.02734,-1.09375 -0.53906,-1.30859c-0.11328,-0.04687 -0.23828,-0.07031 -0.35937,-0.07422zM25.01172,16.54688c-0.20312,0 -0.40234,0.05859 -0.57031,0.17188c-0.45703,0.30469 -0.58203,0.92578 -0.27344,1.38672c0.30469,0.45703 0.92578,0.58203 1.38672,0.27344c0.46094,-0.30469 0.58203,-0.92578 0.27734,-1.38281c-0.18359,-0.27734 -0.49219,-0.44531 -0.82031,-0.44922zM55.01563,16.54688c-0.33984,-0.00391 -0.66016,0.16406 -0.84766,0.44922c-0.30859,0.45703 -0.18359,1.07813 0.27344,1.38281c0.46094,0.30859 1.08203,0.18359 1.38672,-0.27344c0.14844,-0.21875 0.20313,-0.49219 0.15234,-0.75c-0.05078,-0.26172 -0.20312,-0.49219 -0.42578,-0.63672c-0.16016,-0.10937 -0.34375,-0.16797 -0.53906,-0.17187zM20.92188,19.90625c-0.26953,0 -0.53125,0.10547 -0.71875,0.29688c-0.39062,0.38672 -0.39062,1.02344 0,1.41016c0.38672,0.39063 1.02344,0.39063 1.41016,0c0.39063,-0.38672 0.39063,-1.02344 0,-1.41016c-0.18359,-0.1875 -0.42969,-0.29297 -0.69141,-0.29687zM59.10547,19.90625c-0.26953,0 -0.53125,0.10547 -0.71875,0.29688c-0.39062,0.38672 -0.39062,1.02344 0,1.41016c0.38672,0.39063 1.02344,0.39063 1.41016,0c0.39063,-0.38672 0.39063,-1.02344 0,-1.41016c-0.18359,-0.1875 -0.42969,-0.29297 -0.69141,-0.29687zM62.46094,24c-0.20312,-0.00391 -0.39844,0.05469 -0.56641,0.16797c-0.45703,0.30469 -0.58203,0.92578 -0.27344,1.38281c0.30469,0.46094 0.92578,0.58594 1.38281,0.27734c0.46094,-0.30859 0.58594,-0.92578 0.27734,-1.38672c-0.18359,-0.27344 -0.49219,-0.44141 -0.82031,-0.44141zM17.56641,24c-0.33984,-0.00781 -0.66016,0.16016 -0.84766,0.44141c-0.30469,0.46094 -0.18359,1.08203 0.27734,1.38672c0.46094,0.30859 1.07813,0.18359 1.38672,-0.27344c0.30469,-0.46094 0.18359,-1.08203 -0.27734,-1.38672c-0.16016,-0.10547 -0.34375,-0.16406 -0.53906,-0.16797zM28.60938,24.63672c-0.77734,0 -1.91016,0.29297 -2.84375,1.3125c-0.62891,0.6875 -3.02344,3.02344 -3.02344,7.25391c0,4.37109 3.03516,8.24609 3.42188,8.76172c0,0 0.48047,0.71094 1.16406,1.60938c0.67969,0.89453 1.63281,2.07422 2.82813,3.34766c2.38672,2.54688 5.74609,5.48438 9.89063,7.27344c1.92578,0.82813 3.44141,1.32813 4.59375,1.69531c2.08203,0.66406 3.97656,0.56641 5.42188,0.34766c1.01563,-0.14844 2.21484,-0.67187 3.375,-1.41406c1.16406,-0.74219 2.27734,-1.67969 2.74609,-2.98437v-0.00391c0.35547,-1.00391 0.53906,-1.9375 0.60156,-2.69141c0.03516,-0.37891 0.03906,-0.71094 0.01563,-1.00391c-0.02344,-0.29687 -0.01172,-0.51953 -0.24609,-0.90625c-0.50781,-0.84375 -1.17187,-0.92969 -1.92578,-1.30469c-0.39844,-0.19922 -1.56641,-0.77734 -2.73047,-1.33594c-1.16406,-0.5625 -2.20703,-1.07031 -2.76172,-1.27344c-0.38672,-0.14062 -0.82812,-0.32031 -1.41797,-0.25391c-0.59375,0.07031 -1.17187,0.48828 -1.53125,1.03125c-0.42187,0.63281 -1.98047,2.48438 -2.42187,2.99219c-0.125,0.14063 -0.11328,0.10938 -0.09766,0.10938c0.01563,-0.00391 -0.10547,0.00391 -0.41406,-0.15234c-0.52344,-0.26172 -1.25781,-0.51953 -2.3125,-1.08203c-1.05078,-0.56641 -2.37109,-1.39844 -3.8125,-2.68359c-2.20703,-1.96875 -3.75781,-4.47656 -4.19141,-5.21875v-0.00391c-0.125,-0.21484 -0.06641,-0.11719 -0.07422,-0.10156c-0.00391,0.01563 0.07031,-0.10547 0.26172,-0.29687l0.00391,-0.00391c0.44141,-0.44141 0.87109,-1.00781 1.23438,-1.4375c0.47656,-0.55469 0.67578,-1.01953 0.92578,-1.51562c0.42969,-0.85547 0.19141,-1.76562 -0.07031,-2.28125c0.00781,0.01172 -0.15234,-0.35547 -0.33984,-0.79687c-0.18359,-0.4375 -0.41797,-1.01172 -0.67187,-1.62109c-0.5,-1.21484 -1.05859,-2.57812 -1.39062,-3.375c-0.37109,-0.89453 -0.84375,-1.48437 -1.44141,-1.76562c-0.59375,-0.27734 -1.12109,-0.19531 -1.20312,-0.19922h-0.00391c-0.49609,-0.02734 -1.03516,-0.02734 -1.55859,-0.02734zM28.60938,26.63672c0.51953,0 1.03516,0 1.45703,0.02344h0.00781c0.40234,0.01953 0.4375,0.01172 0.44531,0.01563c0.01172,0.00391 0.18359,0.07813 0.45313,0.72266v0.00391c0.32422,0.78125 0.88281,2.14453 1.38672,3.36328c0.25,0.61328 0.48828,1.18359 0.67578,1.63281c0.1875,0.44922 0.29297,0.71094 0.40234,0.92188v0.00391c0.13672,0.26953 0.16406,0.28125 0.0625,0.48047c-0.27734,0.55469 -0.34375,0.75 -0.65625,1.11719c-0.41797,0.48828 -0.86328,1.05469 -1.12891,1.32422c-0.20312,0.19922 -0.53125,0.48828 -0.72656,1.01563c-0.19141,0.52344 -0.11328,1.23047 0.22266,1.80078c0.48438,0.83594 2.10156,3.49609 4.58594,5.71094c1.57422,1.40234 3.03516,2.32813 4.20313,2.95313c1.16797,0.625 2.09766,0.98047 2.36328,1.11328c0.48438,0.23828 0.98828,0.41016 1.54688,0.34375c0.55859,-0.07031 1.03906,-0.41016 1.36328,-0.78125c0.47656,-0.54687 1.94141,-2.24219 2.57422,-3.19531c0.16016,-0.23828 0.11328,-0.15625 0.09766,-0.15234c-0.01562,0.00391 0.16797,0.01953 0.50781,0.14453c0.16406,0.05859 1.42188,0.63672 2.57422,1.19141c1.15234,0.55859 2.32422,1.13672 2.71094,1.32813c0.59766,0.30078 0.94922,0.53516 1.07031,0.58203c0.00781,0.15234 0.00781,0.38672 -0.01562,0.67188c-0.05078,0.57813 -0.19922,1.35547 -0.49609,2.19141v0.00391c-0.19141,0.53125 -0.98047,1.35547 -1.9375,1.97266c-0.95703,0.61328 -2.09375,1.04688 -2.59375,1.12109c-1.28125,0.19141 -2.82031,0.26172 -4.51953,-0.27734c-1.13672,-0.35937 -2.5625,-0.83203 -4.40234,-1.625h-0.00391c-3.76953,-1.62891 -6.95703,-4.38281 -9.23047,-6.80859c-1.13281,-1.21094 -2.04297,-2.33594 -2.6875,-3.1875c-0.64844,-0.85156 -0.96094,-1.33594 -1.15625,-1.59766c-0.40625,-0.53906 -3.02344,-4.16406 -3.02344,-7.5625c0,-3.53125 1.6875,-5.01172 2.5,-5.90625c0.51172,-0.55859 1.08984,-0.66016 1.36719,-0.66016zM64.95313,28.66797c-0.13281,-0.00391 -0.26562,0.02344 -0.39062,0.07422c-0.51172,0.21094 -0.75391,0.79688 -0.54297,1.30469c0.21484,0.51172 0.79688,0.75391 1.30859,0.54297c0.51172,-0.21094 0.75391,-0.79687 0.54297,-1.30859c-0.15625,-0.36719 -0.51562,-0.61328 -0.91797,-0.61328zM15.07813,28.66797c-0.41406,-0.00781 -0.78906,0.23438 -0.94531,0.61719c-0.21094,0.51172 0.03125,1.09375 0.53906,1.30859c0.51172,0.21094 1.09766,-0.03125 1.30859,-0.54297c0.21094,-0.51172 -0.03125,-1.09375 -0.54297,-1.30469c-0.11328,-0.05078 -0.23437,-0.07422 -0.35937,-0.07812zM66.48438,33.73438c-0.06641,-0.00391 -0.13281,0.00391 -0.19922,0.01563c-0.53906,0.10938 -0.89062,0.63672 -0.78516,1.17578c0.10938,0.54297 0.63672,0.89453 1.17578,0.78906c0.54297,-0.10937 0.89453,-0.63672 0.78906,-1.17969c-0.09375,-0.46484 -0.50391,-0.80078 -0.98047,-0.80078zM13.54688,33.73438c-0.48828,-0.01172 -0.91016,0.32422 -1.00781,0.80078c-0.05078,0.26172 0,0.53516 0.14844,0.75391c0.14844,0.22266 0.37891,0.375 0.64063,0.42578c0.25781,0.05078 0.52734,-0.00391 0.75,-0.14844c0.21875,-0.14844 0.37109,-0.37891 0.42188,-0.64062c0.10938,-0.53906 -0.24219,-1.06641 -0.78125,-1.17578c-0.05859,-0.00781 -0.11328,-0.01562 -0.17187,-0.01562zM13,39c-0.55078,0 -1,0.44922 -1,1c0,0.55078 0.44922,1 1,1c0.55078,0 1,-0.44922 1,-1c0,-0.55078 -0.44922,-1 -1,-1zM67,39c-0.55078,0 -1,0.44922 -1,1c0,0.55078 0.44922,1 1,1c0.55078,0 1,-0.44922 1,-1c0,-0.55078 -0.44922,-1 -1,-1zM13.52344,44.26563c-0.06641,0 -0.13281,0.00781 -0.19922,0.01953c-0.54297,0.10938 -0.89453,0.63672 -0.78516,1.17969c0.10938,0.53906 0.63281,0.89063 1.17578,0.78516c0.54297,-0.10937 0.89453,-0.63672 0.78516,-1.17578c-0.09375,-0.46875 -0.5,-0.80469 -0.97656,-0.80859zM66.50781,44.26563c-0.48828,-0.01172 -0.91016,0.32813 -1.00781,0.80859c-0.10547,0.53906 0.24609,1.06641 0.78516,1.17578c0.54297,0.10547 1.07031,-0.24609 1.17969,-0.78516c0.10547,-0.54297 -0.24609,-1.07031 -0.78906,-1.17969c-0.05469,-0.00781 -0.10937,-0.01562 -0.16797,-0.01953zM64.96875,49.32813c-0.41406,-0.00781 -0.78906,0.23828 -0.94922,0.62109c-0.21094,0.50781 0.03125,1.09375 0.54297,1.30469c0.51172,0.21094 1.09375,-0.03125 1.30859,-0.53906c0.21094,-0.51172 -0.03125,-1.09766 -0.54297,-1.30859c-0.11328,-0.04687 -0.23828,-0.07422 -0.35937,-0.07812zM15.0625,49.33203c-0.13281,0 -0.26562,0.02344 -0.39062,0.07422c-0.24219,0.10156 -0.4375,0.29688 -0.53906,0.54297c-0.10156,0.24609 -0.10156,0.51953 -0.00391,0.76563c0.21484,0.51172 0.79688,0.75391 1.30859,0.53906c0.24609,-0.09766 0.44141,-0.29297 0.54297,-0.53906c0.10156,-0.24609 0.10156,-0.51953 0,-0.76562c-0.15234,-0.37109 -0.51562,-0.61328 -0.91797,-0.61719zM62.46875,54c-0.33984,-0.00781 -0.66016,0.16016 -0.84766,0.44141c-0.30859,0.46094 -0.18359,1.07813 0.27344,1.38672c0.21875,0.14844 0.49219,0.20313 0.75,0.14844c0.26172,-0.05078 0.49219,-0.20312 0.63672,-0.42578c0.30859,-0.45703 0.18359,-1.07812 -0.27734,-1.38281c-0.15625,-0.10937 -0.34375,-0.16797 -0.53516,-0.16797zM17,56c-0.55078,0 -1,0.44922 -1,1c0,0.55078 0.44922,1 1,1c0.55078,0 1,-0.44922 1,-1c0,-0.55078 -0.44922,-1 -1,-1zM59.10547,58.09375c-0.26953,-0.00391 -0.53125,0.10156 -0.71875,0.29297c-0.39062,0.38672 -0.39062,1.02344 0,1.41016c0.38672,0.39063 1.02344,0.39063 1.41016,0c0.39063,-0.38672 0.39063,-1.02344 0,-1.41016c-0.18359,-0.1875 -0.42969,-0.29297 -0.69141,-0.29297zM15,61c-0.55078,0 -1,0.44922 -1,1c0,0.55078 0.44922,1 1,1c0.55078,0 1,-0.44922 1,-1c0,-0.55078 -0.44922,-1 -1,-1zM55.01172,61.44922c-0.20312,-0.00391 -0.39844,0.05469 -0.56641,0.16406c-0.22266,0.14844 -0.375,0.37891 -0.42578,0.64063c-0.05078,0.25781 0.00391,0.53125 0.15234,0.75c0.30469,0.45703 0.92578,0.58203 1.38672,0.27734c0.45703,-0.30859 0.58203,-0.92969 0.27344,-1.39062c-0.17969,-0.27344 -0.48828,-0.44141 -0.82031,-0.44141zM24,63c-0.55078,0 -1,0.44922 -1,1c0,0.55078 0.44922,1 1,1c0.55078,0 1,-0.44922 1,-1c0,-0.55078 -0.44922,-1 -1,-1zM29.69141,63.94141c-0.41406,-0.00781 -0.78906,0.23828 -0.94531,0.62109c-0.21094,0.50781 0.03125,1.09375 0.53906,1.30469c0.51172,0.21094 1.09766,-0.03125 1.30859,-0.53906c0.21094,-0.51172 -0.03125,-1.09766 -0.54297,-1.30859c-0.11328,-0.04687 -0.23437,-0.07422 -0.35937,-0.07812zM50.33984,63.94141c-0.13281,0 -0.26562,0.02734 -0.38672,0.07813c-0.24609,0.10156 -0.44141,0.29688 -0.54297,0.53906c-0.10156,0.24609 -0.10156,0.52344 -0.00391,0.76953c0.21484,0.50781 0.79688,0.75 1.30859,0.53906c0.24609,-0.10156 0.44141,-0.29687 0.54297,-0.53906c0.10156,-0.24609 0.10156,-0.52344 0,-0.76562c-0.15234,-0.375 -0.51562,-0.61719 -0.91797,-0.62109zM19,64c-0.55078,0 -1,0.44922 -1,1c0,0.55078 0.44922,1 1,1c0.55078,0 1,-0.44922 1,-1c0,-0.55078 -0.44922,-1 -1,-1zM34.76172,65.48047c-0.48828,-0.01172 -0.91406,0.32813 -1.00781,0.80469c-0.10937,0.54297 0.24219,1.06641 0.78516,1.17578c0.54297,0.10938 1.06641,-0.24219 1.17578,-0.78516c0.10938,-0.54297 -0.24219,-1.06641 -0.78516,-1.17578c-0.05469,-0.01172 -0.11328,-0.01953 -0.16797,-0.01953zM45.26953,65.48438c-0.06641,-0.00391 -0.13281,0.00391 -0.19531,0.01563c-0.54297,0.10938 -0.89453,0.63281 -0.78906,1.17578c0.05469,0.26172 0.20703,0.48828 0.42578,0.63672c0.22266,0.14844 0.49219,0.20313 0.75391,0.15234c0.25781,-0.05469 0.48828,-0.20703 0.63672,-0.42578c0.14453,-0.22266 0.19922,-0.49219 0.14844,-0.75391c-0.09375,-0.46484 -0.50391,-0.80078 -0.98047,-0.80078zM13,66c-0.55078,0 -1,0.44922 -1,1c0,0.55078 0.44922,1 1,1c0.55078,0 1,-0.44922 1,-1c0,-0.55078 -0.44922,-1 -1,-1zM40,66c-0.55078,0 -1,0.44922 -1,1c0,0.55078 0.44922,1 1,1c0.55078,0 1,-0.44922 1,-1c0,-0.55078 -0.44922,-1 -1,-1z"></path></g></g></svg>